<svg id="Layer_1" data-name="Layer 1" xmlns="http://www.w3.org/2000/svg" viewBox="0 0 587.14 366.14"><defs><style>.cls-1{fill:none;stroke:#4b1111;stroke-miterlimit:10;}</style></defs><rect class="cls-1" x="120.46" y="105.28" width="347.52" height="155.59" rx="77.8"/><circle class="cls-1" cx="159.22" cy="276.33" r="5.83"/><circle class="cls-1" cx="159.22" cy="293.03" r="5.83"/><circle class="cls-1" cx="159.22" cy="309.72" r="5.83"/><circle class="cls-1" cx="159.22" cy="326.42" r="5.83"/><circle class="cls-1" cx="159.22" cy="343.12" r="5.83"/><circle class="cls-1" cx="159.22" cy="359.81" r="5.83"/><circle class="cls-1" cx="179.22" cy="276.33" r="5.83"/><circle class="cls-1" cx="179.22" cy="293.03" r="5.83"/><circle class="cls-1" cx="179.22" cy="309.72" r="5.83"/><circle class="cls-1" cx="179.22" cy="326.42" r="5.83"/><circle class="cls-1" cx="179.22" cy="343.12" r="5.83"/><circle class="cls-1" cx="179.22" cy="359.81" r="5.83"/><circle class="cls-1" cx="199.22" cy="276.33" r="5.83"/><circle class="cls-1" cx="199.22" cy="293.03" r="5.83"/><circle class="cls-1" cx="199.22" cy="309.72" r="5.83"/><circle class="cls-1" cx="199.22" cy="326.42" r="5.83"/><circle class="cls-1" cx="199.22" cy="343.12" r="5.83"/><circle class="cls-1" cx="199.22" cy="359.81" r="5.83"/><circle class="cls-1" cx="219.22" cy="276.33" r="5.83"/><circle class="cls-1" cx="219.22" cy="293.03" r="5.83"/><circle class="cls-1" cx="219.22" cy="309.72" r="5.83"/><circle class="cls-1" cx="219.22" cy="326.42" r="5.83"/><circle class="cls-1" cx="219.22" cy="343.12" r="5.83"/><circle class="cls-1" cx="219.22" cy="359.81" r="5.83"/><circle class="cls-1" cx="239.22" cy="276.33" r="5.83"/><circle class="cls-1" cx="239.22" cy="293.03" r="5.83"/><circle class="cls-1" cx="239.22" cy="309.72" r="5.83"/><circle class="cls-1" cx="239.22" cy="326.42" r="5.83"/><circle class="cls-1" cx="239.22" cy="343.12" r="5.83"/><circle class="cls-1" cx="239.22" cy="359.81" r="5.83"/><circle class="cls-1" cx="259.22" cy="276.33" r="5.83"/><circle class="cls-1" cx="259.22" cy="293.03" r="5.83"/><circle class="cls-1" cx="259.22" cy="309.72" r="5.83"/><circle class="cls-1" cx="259.22" cy="326.42" r="5.83"/><circle class="cls-1" cx="259.22" cy="343.12" r="5.83"/><circle class="cls-1" cx="259.22" cy="359.81" r="5.83"/><circle class="cls-1" cx="279.22" cy="276.33" r="5.83"/><circle class="cls-1" cx="279.22" cy="293.03" r="5.83"/><circle class="cls-1" cx="279.22" cy="309.72" r="5.83"/><circle class="cls-1" cx="279.22" cy="326.42" r="5.83"/><circle class="cls-1" cx="279.22" cy="343.12" r="5.83"/><circle class="cls-1" cx="279.22" cy="359.81" r="5.83"/><circle class="cls-1" cx="299.22" cy="276.33" r="5.83"/><circle class="cls-1" cx="299.22" cy="293.03" r="5.83"/><circle class="cls-1" cx="299.22" cy="309.72" r="5.83"/><circle class="cls-1" cx="299.22" cy="326.42" r="5.83"/><circle class="cls-1" cx="299.22" cy="343.12" r="5.83"/><circle class="cls-1" cx="299.22" cy="359.81" r="5.83"/><circle class="cls-1" cx="319.22" cy="276.33" r="5.83"/><circle class="cls-1" cx="319.22" cy="293.03" r="5.83"/><circle class="cls-1" cx="319.22" cy="309.72" r="5.83"/><circle class="cls-1" cx="319.22" cy="326.42" r="5.83"/><circle class="cls-1" cx="319.22" cy="343.12" r="5.83"/><circle class="cls-1" cx="319.22" cy="359.81" r="5.83"/><circle class="cls-1" cx="339.22" cy="276.33" r="5.83"/><circle class="cls-1" cx="339.22" cy="293.03" r="5.83"/><circle class="cls-1" cx="339.22" cy="309.72" r="5.83"/><circle class="cls-1" cx="339.22" cy="326.42" r="5.83"/><circle class="cls-1" cx="339.22" cy="343.12" r="5.83"/><circle class="cls-1" cx="339.22" cy="359.81" r="5.83"/><circle class="cls-1" cx="359.22" cy="276.33" r="5.83"/><circle class="cls-1" cx="359.22" cy="293.03" r="5.83"/><circle class="cls-1" cx="359.22" cy="309.72" r="5.83"/><circle class="cls-1" cx="359.22" cy="326.42" r="5.83"/><circle class="cls-1" cx="359.22" cy="343.12" r="5.83"/><circle class="cls-1" cx="359.22" cy="359.81" r="5.83"/><circle class="cls-1" cx="379.22" cy="276.33" r="5.83"/><circle class="cls-1" cx="379.22" cy="293.03" r="5.83"/><circle class="cls-1" cx="379.22" cy="309.72" r="5.83"/><circle class="cls-1" cx="379.22" cy="326.42" r="5.83"/><circle class="cls-1" cx="379.22" cy="343.12" r="5.83"/><circle class="cls-1" cx="379.22" cy="359.81" r="5.83"/><circle class="cls-1" cx="399.22" cy="276.33" r="5.83"/><circle class="cls-1" cx="399.22" cy="293.03" r="5.83"/><circle class="cls-1" cx="399.22" cy="309.72" r="5.83"/><circle class="cls-1" cx="399.22" cy="326.42" r="5.83"/><circle class="cls-1" cx="399.22" cy="343.12" r="5.83"/><circle class="cls-1" cx="399.22" cy="359.81" r="5.83"/><circle class="cls-1" cx="419.22" cy="276.33" r="5.83"/><circle class="cls-1" cx="419.22" cy="293.03" r="5.83"/><circle class="cls-1" cx="419.22" cy="309.72" r="5.83"/><circle class="cls-1" cx="419.22" cy="326.42" r="5.83"/><circle class="cls-1" cx="419.22" cy="343.12" r="5.83"/><circle class="cls-1" cx="419.22" cy="359.81" r="5.83"/><circle class="cls-1" cx="439.22" cy="276.33" r="5.83"/><circle class="cls-1" cx="439.22" cy="293.03" r="5.83"/><circle class="cls-1" cx="439.22" cy="309.72" r="5.83"/><circle class="cls-1" cx="439.22" cy="326.42" r="5.83"/><circle class="cls-1" cx="439.22" cy="343.12" r="5.83"/><circle class="cls-1" cx="439.22" cy="359.81" r="5.83"/><circle class="cls-1" cx="159.22" cy="6.33" r="5.83"/><circle class="cls-1" cx="159.22" cy="23.03" r="5.83"/><circle class="cls-1" cx="159.22" cy="39.72" r="5.83"/><circle class="cls-1" cx="159.22" cy="56.42" r="5.83"/><circle class="cls-1" cx="159.22" cy="73.12" r="5.83"/><circle class="cls-1" cx="159.22" cy="89.81" r="5.83"/><circle class="cls-1" cx="179.22" cy="6.33" r="5.83"/><circle class="cls-1" cx="179.22" cy="23.03" r="5.83"/><circle class="cls-1" cx="179.22" cy="39.72" r="5.83"/><circle class="cls-1" cx="179.22" cy="56.42" r="5.83"/><circle class="cls-1" cx="179.22" cy="73.12" r="5.83"/><circle class="cls-1" cx="179.22" cy="89.81" r="5.83"/><circle class="cls-1" cx="199.22" cy="6.33" r="5.83"/><circle class="cls-1" cx="199.22" cy="23.03" r="5.83"/><circle class="cls-1" cx="199.22" cy="39.72" r="5.83"/><circle class="cls-1" cx="199.22" cy="56.42" r="5.83"/><circle class="cls-1" cx="199.22" cy="73.12" r="5.83"/><circle class="cls-1" cx="199.22" cy="89.81" r="5.83"/><circle class="cls-1" cx="219.22" cy="6.33" r="5.83"/><circle class="cls-1" cx="219.22" cy="23.03" r="5.83"/><circle class="cls-1" cx="219.22" cy="39.72" r="5.83"/><circle class="cls-1" cx="219.22" cy="56.42" r="5.83"/><circle class="cls-1" cx="219.22" cy="73.12" r="5.83"/><circle class="cls-1" cx="219.22" cy="89.81" r="5.83"/><circle class="cls-1" cx="239.22" cy="6.33" r="5.83"/><circle class="cls-1" cx="239.22" cy="23.03" r="5.83"/><circle class="cls-1" cx="239.22" cy="39.72" r="5.83"/><circle class="cls-1" cx="239.22" cy="56.42" r="5.83"/><circle class="cls-1" cx="239.22" cy="73.12" r="5.83"/><circle class="cls-1" cx="239.22" cy="89.81" r="5.83"/><circle class="cls-1" cx="259.22" cy="6.33" r="5.83"/><circle class="cls-1" cx="259.22" cy="23.03" r="5.83"/><circle class="cls-1" cx="259.22" cy="39.72" r="5.83"/><circle class="cls-1" cx="259.22" cy="56.42" r="5.83"/><circle class="cls-1" cx="259.22" cy="73.12" r="5.83"/><circle class="cls-1" cx="259.22" cy="89.81" r="5.83"/><circle class="cls-1" cx="279.22" cy="6.33" r="5.83"/><circle class="cls-1" cx="279.22" cy="23.03" r="5.83"/><circle class="cls-1" cx="279.22" cy="39.72" r="5.83"/><circle class="cls-1" cx="279.22" cy="56.42" r="5.83"/><circle class="cls-1" cx="279.22" cy="73.12" r="5.83"/><circle class="cls-1" cx="279.22" cy="89.81" r="5.83"/><circle class="cls-1" cx="299.22" cy="6.33" r="5.83"/><circle class="cls-1" cx="299.22" cy="23.03" r="5.83"/><circle class="cls-1" cx="299.22" cy="39.72" r="5.83"/><circle class="cls-1" cx="299.22" cy="56.42" r="5.83"/><circle class="cls-1" cx="299.22" cy="73.12" r="5.83"/><circle class="cls-1" cx="299.22" cy="89.81" r="5.83"/><circle class="cls-1" cx="319.22" cy="6.33" r="5.83"/><circle class="cls-1" cx="319.22" cy="23.03" r="5.83"/><circle class="cls-1" cx="319.22" cy="39.72" r="5.83"/><circle class="cls-1" cx="319.22" cy="56.42" r="5.83"/><circle class="cls-1" cx="319.22" cy="73.12" r="5.83"/><circle class="cls-1" cx="319.22" cy="89.81" r="5.83"/><circle class="cls-1" cx="339.22" cy="6.33" r="5.83"/><circle class="cls-1" cx="339.22" cy="23.03" r="5.83"/><circle class="cls-1" cx="339.22" cy="39.72" r="5.83"/><circle class="cls-1" cx="339.22" cy="56.42" r="5.83"/><circle class="cls-1" cx="339.22" cy="73.12" r="5.83"/><circle class="cls-1" cx="339.22" cy="89.81" r="5.83"/><circle class="cls-1" cx="359.22" cy="6.33" r="5.83"/><circle class="cls-1" cx="359.22" cy="23.03" r="5.83"/><circle class="cls-1" cx="359.22" cy="39.72" r="5.83"/><circle class="cls-1" cx="359.22" cy="56.42" r="5.83"/><circle class="cls-1" cx="359.22" cy="73.12" r="5.83"/><circle class="cls-1" cx="359.22" cy="89.81" r="5.83"/><circle class="cls-1" cx="379.22" cy="6.33" r="5.83"/><circle class="cls-1" cx="379.22" cy="23.03" r="5.83"/><circle class="cls-1" cx="379.22" cy="39.72" r="5.83"/><circle class="cls-1" cx="379.22" cy="56.42" r="5.83"/><circle class="cls-1" cx="379.22" cy="73.12" r="5.83"/><circle class="cls-1" cx="379.22" cy="89.81" r="5.83"/><circle class="cls-1" cx="399.22" cy="6.33" r="5.83"/><circle class="cls-1" cx="399.22" cy="23.03" r="5.83"/><circle class="cls-1" cx="399.22" cy="39.72" r="5.83"/><circle class="cls-1" cx="399.22" cy="56.42" r="5.83"/><circle class="cls-1" cx="399.22" cy="73.12" r="5.83"/><circle class="cls-1" cx="399.22" cy="89.81" r="5.83"/><circle class="cls-1" cx="419.22" cy="6.33" r="5.83"/><circle class="cls-1" cx="419.22" cy="23.03" r="5.83"/><circle class="cls-1" cx="419.22" cy="39.72" r="5.83"/><circle class="cls-1" cx="419.22" cy="56.42" r="5.83"/><circle class="cls-1" cx="419.22" cy="73.12" r="5.83"/><circle class="cls-1" cx="419.22" cy="89.81" r="5.83"/><circle class="cls-1" cx="439.22" cy="6.33" r="5.83"/><circle class="cls-1" cx="439.22" cy="23.03" r="5.83"/><circle class="cls-1" cx="439.22" cy="39.72" r="5.83"/><circle class="cls-1" cx="439.22" cy="56.42" r="5.83"/><circle class="cls-1" cx="439.22" cy="73.12" r="5.83"/><circle class="cls-1" cx="439.22" cy="89.81" r="5.83"/><circle class="cls-1" cx="6.33" cy="141.33" r="5.83"/><circle class="cls-1" cx="6.33" cy="158.03" r="5.83"/><circle class="cls-1" cx="6.33" cy="174.72" r="5.83"/><circle class="cls-1" cx="6.33" cy="191.42" r="5.83"/><circle class="cls-1" cx="6.33" cy="208.12" r="5.83"/><circle class="cls-1" cx="6.33" cy="224.81" r="5.83"/><circle class="cls-1" cx="26.33" cy="141.33" r="5.83"/><circle class="cls-1" cx="26.33" cy="158.03" r="5.83"/><circle class="cls-1" cx="26.33" cy="174.72" r="5.83"/><circle class="cls-1" cx="26.33" cy="191.42" r="5.83"/><circle class="cls-1" cx="26.33" cy="208.12" r="5.83"/><circle class="cls-1" cx="26.33" cy="224.81" r="5.83"/><circle class="cls-1" cx="46.33" cy="141.33" r="5.83"/><circle class="cls-1" cx="46.33" cy="158.03" r="5.83"/><circle class="cls-1" cx="46.33" cy="174.72" r="5.83"/><circle class="cls-1" cx="46.33" cy="191.42" r="5.83"/><circle class="cls-1" cx="46.33" cy="208.12" r="5.83"/><circle class="cls-1" cx="46.33" cy="224.81" r="5.83"/><circle class="cls-1" cx="66.33" cy="141.33" r="5.83"/><circle class="cls-1" cx="66.33" cy="158.03" r="5.83"/><circle class="cls-1" cx="66.33" cy="174.72" r="5.83"/><circle class="cls-1" cx="66.33" cy="191.42" r="5.83"/><circle class="cls-1" cx="66.33" cy="208.12" r="5.83"/><circle class="cls-1" cx="66.33" cy="224.81" r="5.83"/><circle class="cls-1" cx="86.33" cy="141.33" r="5.83"/><circle class="cls-1" cx="86.33" cy="158.03" r="5.83"/><circle class="cls-1" cx="86.33" cy="174.72" r="5.83"/><circle class="cls-1" cx="86.33" cy="191.42" r="5.83"/><circle class="cls-1" cx="86.33" cy="208.12" r="5.83"/><circle class="cls-1" cx="86.33" cy="224.81" r="5.83"/><circle class="cls-1" cx="106.33" cy="141.33" r="5.83"/><circle class="cls-1" cx="106.33" cy="158.03" r="5.83"/><circle class="cls-1" cx="106.33" cy="174.72" r="5.83"/><circle class="cls-1" cx="106.33" cy="191.42" r="5.83"/><circle class="cls-1" cx="106.33" cy="208.12" r="5.83"/><circle class="cls-1" cx="106.33" cy="224.81" r="5.83"/><circle class="cls-1" cx="480.81" cy="138.81" r="5.83"/><circle class="cls-1" cx="480.81" cy="155.51" r="5.83"/><circle class="cls-1" cx="480.81" cy="172.21" r="5.83"/><circle class="cls-1" cx="480.81" cy="188.9" r="5.83"/><circle class="cls-1" cx="480.81" cy="205.6" r="5.83"/><circle class="cls-1" cx="480.81" cy="222.29" r="5.83"/><circle class="cls-1" cx="500.81" cy="138.81" r="5.83"/><circle class="cls-1" cx="500.81" cy="155.51" r="5.83"/><circle class="cls-1" cx="500.81" cy="172.21" r="5.83"/><circle class="cls-1" cx="500.81" cy="188.9" r="5.83"/><circle class="cls-1" cx="500.81" cy="205.6" r="5.83"/><circle class="cls-1" cx="500.81" cy="222.29" r="5.83"/><circle class="cls-1" cx="520.81" cy="138.81" r="5.83"/><circle class="cls-1" cx="520.81" cy="155.51" r="5.83"/><circle class="cls-1" cx="520.81" cy="172.21" r="5.83"/><circle class="cls-1" cx="520.81" cy="188.9" r="5.83"/><circle class="cls-1" cx="520.81" cy="205.6" r="5.83"/><circle class="cls-1" cx="520.81" cy="222.29" r="5.83"/><circle class="cls-1" cx="540.81" cy="138.81" r="5.83"/><circle class="cls-1" cx="540.81" cy="155.51" r="5.83"/><circle class="cls-1" cx="540.81" cy="172.21" r="5.83"/><circle class="cls-1" cx="540.81" cy="188.9" r="5.83"/><circle class="cls-1" cx="540.81" cy="205.6" r="5.83"/><circle class="cls-1" cx="540.81" cy="222.29" r="5.83"/><circle class="cls-1" cx="560.81" cy="138.81" r="5.83"/><circle class="cls-1" cx="560.81" cy="155.51" r="5.83"/><circle class="cls-1" cx="560.81" cy="172.21" r="5.83"/><circle class="cls-1" cx="560.81" cy="188.9" r="5.83"/><circle class="cls-1" cx="560.81" cy="205.6" r="5.83"/><circle class="cls-1" cx="560.81" cy="222.29" r="5.83"/><circle class="cls-1" cx="580.81" cy="138.81" r="5.83"/><circle class="cls-1" cx="580.81" cy="155.51" r="5.83"/><circle class="cls-1" cx="580.81" cy="172.21" r="5.83"/><circle class="cls-1" cx="580.81" cy="188.9" r="5.83"/><circle class="cls-1" cx="580.81" cy="205.6" r="5.83"/><circle class="cls-1" cx="580.81" cy="222.29" r="5.83"/><circle class="cls-1" cx="91.62" cy="246.25" r="5.83"/><circle class="cls-1" cx="79.82" cy="258.05" r="5.83"/><circle class="cls-1" cx="68.01" cy="269.86" r="5.83"/><circle class="cls-1" cx="56.2" cy="281.66" r="5.83"/><circle class="cls-1" cx="44.4" cy="293.47" r="5.83"/><circle class="cls-1" cx="117.57" cy="248.58" r="5.83"/><circle class="cls-1" cx="105.76" cy="260.39" r="5.83"/><circle class="cls-1" cx="93.96" cy="272.19" r="5.83"/><circle class="cls-1" cx="82.15" cy="284" r="5.83"/><circle class="cls-1" cx="70.35" cy="295.81" r="5.83"/><circle class="cls-1" cx="58.54" cy="307.61" r="5.83"/><circle class="cls-1" cx="131.71" cy="262.72" r="5.83"/><circle class="cls-1" cx="119.91" cy="274.53" r="5.83"/><circle class="cls-1" cx="108.1" cy="286.34" r="5.83"/><circle class="cls-1" cx="96.29" cy="298.14" r="5.83"/><circle class="cls-1" cx="84.49" cy="309.95" r="5.83"/><circle class="cls-1" cx="72.68" cy="321.75" r="5.83"/><circle class="cls-1" cx="134.05" cy="288.67" r="5.83"/><circle class="cls-1" cx="122.24" cy="300.48" r="5.83"/><circle class="cls-1" cx="110.44" cy="312.28" r="5.83"/><circle class="cls-1" cx="98.63" cy="324.09" r="5.83"/><circle class="cls-1" cx="86.82" cy="335.9" r="5.83"/><circle class="cls-1" cx="464.4" cy="288.67" r="5.83"/><circle class="cls-1" cx="476.2" cy="300.48" r="5.83"/><circle class="cls-1" cx="488.01" cy="312.28" r="5.83"/><circle class="cls-1" cx="499.82" cy="324.09" r="5.83"/><circle class="cls-1" cx="511.62" cy="335.9" r="5.83"/><circle class="cls-1" cx="466.73" cy="262.72" r="5.83"/><circle class="cls-1" cx="478.54" cy="274.53" r="5.83"/><circle class="cls-1" cx="490.35" cy="286.34" r="5.83"/><circle class="cls-1" cx="502.15" cy="298.14" r="5.83"/><circle class="cls-1" cx="513.96" cy="309.95" r="5.83"/><circle class="cls-1" cx="525.76" cy="321.75" r="5.83"/><circle class="cls-1" cx="480.88" cy="248.58" r="5.83"/><circle class="cls-1" cx="492.68" cy="260.39" r="5.83"/><circle class="cls-1" cx="504.49" cy="272.19" r="5.83"/><circle class="cls-1" cx="516.29" cy="284" r="5.83"/><circle class="cls-1" cx="528.1" cy="295.81" r="5.83"/><circle class="cls-1" cx="539.91" cy="307.61" r="5.83"/><circle class="cls-1" cx="506.82" cy="246.25" r="5.83"/><circle class="cls-1" cx="518.63" cy="258.05" r="5.83"/><circle class="cls-1" cx="530.44" cy="269.86" r="5.83"/><circle class="cls-1" cx="542.24" cy="281.66" r="5.83"/><circle class="cls-1" cx="554.05" cy="293.47" r="5.83"/><circle class="cls-1" cx="506.82" cy="119.9" r="5.83"/><circle class="cls-1" cx="518.63" cy="108.09" r="5.83"/><circle class="cls-1" cx="530.44" cy="96.28" r="5.83"/><circle class="cls-1" cx="542.24" cy="84.48" r="5.83"/><circle class="cls-1" cx="554.05" cy="72.67" r="5.83"/><circle class="cls-1" cx="480.88" cy="117.56" r="5.83"/><circle class="cls-1" cx="492.68" cy="105.75" r="5.83"/><circle class="cls-1" cx="504.49" cy="93.95" r="5.83"/><circle class="cls-1" cx="516.29" cy="82.14" r="5.83"/><circle class="cls-1" cx="528.1" cy="70.34" r="5.83"/><circle class="cls-1" cx="539.91" cy="58.53" r="5.83"/><circle class="cls-1" cx="466.73" cy="103.42" r="5.83"/><circle class="cls-1" cx="478.54" cy="91.61" r="5.83"/><circle class="cls-1" cx="490.35" cy="79.81" r="5.83"/><circle class="cls-1" cx="502.15" cy="68" r="5.83"/><circle class="cls-1" cx="513.96" cy="56.19" r="5.83"/><circle class="cls-1" cx="525.76" cy="44.39" r="5.83"/><circle class="cls-1" cx="464.4" cy="77.47" r="5.83"/><circle class="cls-1" cx="476.2" cy="65.66" r="5.83"/><circle class="cls-1" cx="488.01" cy="53.86" r="5.83"/><circle class="cls-1" cx="499.82" cy="42.05" r="5.83"/><circle class="cls-1" cx="511.62" cy="30.25" r="5.83"/><circle class="cls-1" cx="134.05" cy="77.47" r="5.83"/><circle class="cls-1" cx="122.24" cy="65.66" r="5.83"/><circle class="cls-1" cx="110.44" cy="53.86" r="5.83"/><circle class="cls-1" cx="98.63" cy="42.05" r="5.83"/><circle class="cls-1" cx="86.82" cy="30.25" r="5.83"/><circle class="cls-1" cx="131.71" cy="103.42" r="5.83"/><circle class="cls-1" cx="119.91" cy="91.61" r="5.83"/><circle class="cls-1" cx="108.1" cy="79.81" r="5.83"/><circle class="cls-1" cx="96.29" cy="68" r="5.83"/><circle class="cls-1" cx="84.49" cy="56.19" r="5.83"/><circle class="cls-1" cx="72.68" cy="44.39" r="5.83"/><circle class="cls-1" cx="117.57" cy="117.56" r="5.83"/><circle class="cls-1" cx="105.76" cy="105.75" r="5.83"/><circle class="cls-1" cx="93.96" cy="93.95" r="5.83"/><circle class="cls-1" cx="82.15" cy="82.14" r="5.83"/><circle class="cls-1" cx="70.35" cy="70.34" r="5.83"/><circle class="cls-1" cx="58.54" cy="58.53" r="5.83"/><circle class="cls-1" cx="91.62" cy="119.9" r="5.83"/><circle class="cls-1" cx="79.82" cy="108.09" r="5.83"/><circle class="cls-1" cx="68.01" cy="96.28" r="5.83"/><circle class="cls-1" cx="56.2" cy="84.48" r="5.83"/><circle class="cls-1" cx="44.4" cy="72.67" r="5.83"/></svg>